<svg width="400" height="517" viewBox="0 0 400 517" fill="none" xmlns="http://www.w3.org/2000/svg">
<g clip-path="url(#clip0_1_2)">
<path d="M400 0H0V517H400V0Z" fill="white"/>
<path d="M170 256.208C170 254.551 171.343 253.208 173 253.208H192.208C193.865 253.208 195.208 251.865 195.208 250.208V231C195.208 229.343 196.551 228 198.208 228H202.292C203.949 228 205.292 229.343 205.292 231V250.208C205.292 251.865 206.635 253.208 208.292 253.208H227.5C229.157 253.208 230.5 254.551 230.5 256.208V260.292C230.5 261.949 229.157 263.292 227.5 263.292H208.292C206.635 263.292 205.292 264.635 205.292 266.292V285.5C205.292 287.157 203.949 288.5 202.292 288.5H198.208C196.551 288.5 195.208 287.157 195.208 285.5V266.292C195.208 264.635 193.865 263.292 192.208 263.292H173C171.343 263.292 170 261.949 170 260.292V256.208Z" fill="#4285F4"/>
<path d="M116.295 239.979C126.265 185.173 193.676 164.035 233.321 202.856L234.105 203.625L235.175 203.375C273.02 194.528 308.999 223.4 309 261.898C309 295.036 282.036 322 248.898 322H120.445C91.5118 322 71.7972 292.235 83.3669 265.529L83.3718 265.516L83.3796 265.5L83.3874 265.482C88.9732 252.632 100.807 243.593 114.612 241.6L116.037 241.395L116.295 239.979ZM228.533 213.116C196.561 177.53 137.52 192.962 127.138 239.641L126.696 241.632L128.695 242.036C137.301 243.774 145.866 248.18 153.596 255.168L154.342 255.852C156.409 257.778 156.583 260.974 154.784 263.112L154.604 263.315C152.678 265.381 149.482 265.556 147.344 263.757L147.141 263.577C132.722 250.136 119.469 250.815 112.03 252.959L111.328 253.17L111.316 253.173C79.2057 263.513 86.6389 311.439 120.446 311.439H248.898C276.217 311.439 298.44 289.217 298.439 261.899L298.433 261.119C297.935 228.439 266.204 205.058 234.791 214.395L234.043 214.624L234.042 214.625C232.193 215.206 230.184 214.724 228.8 213.393L228.533 213.116Z" stroke="#4285F4" stroke-width="4"/>
</g>
<defs>
<clipPath id="clip0_1_2">
<rect width="400" height="517" fill="white"/>
</clipPath>
</defs>
</svg>
